<?xml version="1.0" encoding="UTF-8"?>
<svg version="1.1" xmlns="http://www.w3.org/2000/svg" width="1026" height="1024">
<path d="M0 0 C1.18143585 0.00182281 2.3628717 0.00364563 3.58010864 0.00552368 C22.07497124 0.05342449 40.16649228 0.72390742 58.5 3.3125 C60.32821289 3.55395752 60.32821289 3.55395752 62.19335938 3.80029297 C154.15022025 16.12990299 238.67506296 58.94486463 328.5390625 145.0078125 C330.16225389 146.91554741 331.80482082 148.80069156 333.4609375 150.6796875 C340.47422388 158.65684586 347.17893488 166.77420685 353.5 175.3125 C353.99467773 175.97588379 354.48935547 176.63926758 354.99902344 177.32275391 C403.69964537 242.8213442 432.74088064 320.19077288 440.5 401.3125 C440.59571289 402.29009277 440.69142578 403.26768555 440.79003906 404.27490234 C441.8043183 416.22267546 441.74369908 428.20486568 441.75 440.1875 C441.75101212 441.91942596 441.75101212 441.91942596 441.75204468 443.68634033 C441.66336641 539.47047324 410.04926147 633.35670134 351.5 709.3125 C351.066875 709.87710938 350.63375 710.44171875 350.1875 711.0234375 C344.87604725 717.93436181 339.45971906 724.65433568 333.5546875 731.07421875 C331.61897397 733.18289527 329.74180024 735.33036328 327.875 737.5 C325.12644009 740.66021059 322.22834766 743.60866482 319.23828125 746.5390625 C317.45916975 748.35415603 315.82636237 750.2454289 314.1875 752.1875 C310.82795074 756.07593617 307.14502274 759.44595433 303.2890625 762.8359375 C301.31556554 764.58831435 299.37858086 766.35302218 297.4609375 768.1640625 C290.39755367 774.82851406 283.09781723 780.98340362 275.37744141 786.87207031 C273.43071691 788.36565608 271.50169262 789.88010839 269.57421875 791.3984375 C205.79060617 841.35350063 128.69680692 870.87341724 48.5 880.3125 C47.49630371 880.43109375 46.49260742 880.5496875 45.45849609 880.671875 C-31.7861172 889.27309789 -111.92939816 875.36193093 -182.5 843.3125 C-183.97170654 842.64782715 -183.97170654 842.64782715 -185.47314453 841.96972656 C-227.95647217 822.63151358 -266.20834063 795.88184101 -300.5 764.3125 C-301.11842773 763.74450684 -301.73685547 763.17651367 -302.37402344 762.59130859 C-304.48358271 760.64961212 -306.58634236 758.70078279 -308.6875 756.75 C-309.35305908 756.13672852 -310.01861816 755.52345703 -310.7043457 754.89160156 C-314.66293352 751.19632899 -318.30395195 747.35466913 -321.82739258 743.2434082 C-323.87756243 740.8766306 -326.02130204 738.61231305 -328.1784668 736.34350586 C-334.64440732 729.53000973 -340.55178587 722.43107756 -346.23535156 714.95800781 C-347.39264771 713.45218232 -348.58154945 711.97078402 -349.7734375 710.4921875 C-363.65998215 693.09846093 -375.8804611 673.84896716 -386.5 654.3125 C-386.97598633 653.44270508 -387.45197266 652.57291016 -387.94238281 651.67675781 C-400.24488463 629.06221743 -410.30148545 605.70975399 -418.5 581.3125 C-419.01191895 579.80478027 -419.01191895 579.80478027 -419.53417969 578.26660156 C-434.31092061 534.24746809 -440.96922853 488.17065132 -440.8125 441.8125 C-440.81067719 440.68285828 -440.80885437 439.55321655 -440.80697632 438.38934326 C-440.7568899 419.85997888 -440.0597098 401.68247592 -437.5 383.3125 C-437.32839355 382.07564453 -437.15678711 380.83878906 -436.97998047 379.56445312 C-430.56572585 334.96847373 -417.88223349 291.99204975 -398.5 251.3125 C-398.08669434 250.44206055 -397.67338867 249.57162109 -397.24755859 248.67480469 C-373.47647379 198.98706895 -338.63610108 150.04957642 -296.5390625 114.07421875 C-294.2730777 112.11644261 -292.07856506 110.09021052 -289.875 108.0625 C-284.22146288 102.96306147 -278.2628393 98.30420907 -272.23632812 93.65917969 C-270.63112279 92.4141976 -269.04138163 91.14934535 -267.453125 89.8828125 C-209.04313578 43.72984174 -136.55820641 14.76165169 -63.1875 4.0625 C-61.63567017 3.83578613 -61.63567017 3.83578613 -60.05249023 3.60449219 C-40.05456771 0.87168439 -20.16887164 -0.0649627 0 0 Z " fill="#000000" transform="translate(512.5,70.6875)"/>
<path d="M0 0 C1.45140381 0.56944336 1.45140381 0.56944336 2.93212891 1.15039062 C35.14496315 13.96088052 65.77395607 30.44847178 93 52 C93.90363281 52.70382813 94.80726563 53.40765625 95.73828125 54.1328125 C98.18407105 56.0597984 100.59743976 58.01940841 103 60 C103.9796875 60.80566406 104.959375 61.61132812 105.96875 62.44140625 C120.22158301 74.2756829 133.93625271 86.92562816 146 101 C146.85078125 101.96164062 147.7015625 102.92328125 148.578125 103.9140625 C166.71820889 124.53075664 181.56412241 147.1187253 195 171 C195.53488037 171.93779297 195.53488037 171.93779297 196.08056641 172.89453125 C215.83533621 207.64597419 228.11715233 247.30817159 234.8125 286.5625 C235.0199585 287.77534668 235.22741699 288.98819336 235.44116211 290.23779297 C236.84071941 298.89744297 237.41092924 307.16393864 238 316 C161.44 316 84.88 316 6 316 C4.68 311.05 3.36 306.1 2 301 C-10.70899409 263.89518885 -36.57621537 233.62618208 -71.66162109 216.10205078 C-105.80682862 200.00981161 -145.54574917 196.89351674 -181.33984375 209.27734375 C-201.33856261 216.53173999 -218.39100285 226.52987788 -234 241 C-234.90492188 241.83402344 -235.80984375 242.66804688 -236.7421875 243.52734375 C-256.25632116 262.28158124 -267.95650901 285.96074118 -275.0546875 311.78125 C-276 315 -276 315 -277 316 C-279.90780605 316.09795811 -282.79186546 316.12991996 -285.7000885 316.12025452 C-287.08569439 316.12153615 -287.08569439 316.12153615 -288.49929231 316.12284368 C-291.61942049 316.12450132 -294.73949585 316.1189725 -297.85961914 316.11352539 C-300.0863393 316.11324355 -302.31305956 316.11340118 -304.53977966 316.1139679 C-310.60565077 316.11425601 -316.67150229 316.10835709 -322.73736882 316.10139394 C-329.06884364 316.09516266 -335.40031885 316.09455678 -341.73179626 316.09336853 C-352.3655536 316.09060883 -362.99930315 316.08435331 -373.63305664 316.07543945 C-384.58780888 316.06626604 -395.54255915 316.05918486 -406.49731445 316.05493164 C-407.50951187 316.05453756 -407.50951187 316.05453756 -408.54215772 316.05413551 C-411.92728717 316.05283051 -415.31241664 316.05156679 -418.69754612 316.05032361 C-446.79836911 316.03995014 -474.89918411 316.02225696 -503 316 C-503.0073789 314.56400314 -503.01263453 313.12799527 -503.01699829 311.69198608 C-503.0201536 310.892311 -503.02330891 310.09263592 -503.02655983 309.26872826 C-502.2938357 246.67977539 -470.23316738 177.178591 -433 128 C-432.53787109 127.38914551 -432.07574219 126.77829102 -431.59960938 126.14892578 C-415.42464035 104.92352062 -397.49201787 83.58291629 -376.4921875 66.99609375 C-374.17389348 65.13927832 -371.99466439 63.20085545 -369.8125 61.1875 C-320.91325349 17.4036002 -254.62469703 -9.50944543 -190.42382812 -19.61816406 C-188.38990294 -19.93857693 -186.35864949 -20.27588657 -184.328125 -20.6171875 C-123.39478008 -30.27735194 -57.33664319 -22.50698143 0 0 Z " fill="#FE1B1B" transform="translate(648,166)"/>
<path d="M0 0 C76.56 0 153.12 0 232 0 C233.98 6.93 235.96 13.86 238 21 C252.47537226 56.83247887 278.56299664 86.39651008 314.38916016 102.04345703 C350.21699995 116.77646829 389.85780291 118.70660802 426.14550781 104.13867188 C430.52750154 102.2723058 434.76708815 100.18134726 439 98 C439.94875 97.52949219 440.8975 97.05898438 441.875 96.57421875 C455.13062019 89.73447287 466.45739495 80.44860377 477 70 C477.78890625 69.22398437 478.5778125 68.44796875 479.390625 67.6484375 C497.25453295 48.94916695 507.80667898 24.77328408 514 0 C588.91 0 663.82 0 741 0 C739.82545125 18.79278007 739.82545125 18.79278007 738.375 27.125 C738.20242676 28.12450684 738.02985352 29.12401367 737.85205078 30.15380859 C732.20980398 61.68571477 723.39148025 91.87655695 710 121 C709.62439941 121.83724609 709.24879883 122.67449219 708.86181641 123.53710938 C688.572819 168.7305294 657.15883074 212.66740156 619.3203125 245.015625 C617.55011966 246.5295273 615.79815218 248.06476703 614.0546875 249.609375 C560.91029835 296.44232351 494.54207884 324.89188208 425 336 C423.98776367 336.16661133 422.97552734 336.33322266 421.93261719 336.50488281 C404.69928133 339.21177752 387.46888598 339.28529454 370.0625 339.3125 C368.93169006 339.31617584 367.80088013 339.31985168 366.63580322 339.32363892 C351.97463666 339.34849736 337.5604116 338.73440408 323 337 C321.82751709 336.864729 320.65503418 336.72945801 319.44702148 336.59008789 C245.55067957 327.43484106 174.0591084 293.26447297 119.74609375 242.5625 C117.09236908 240.08619362 114.39844318 237.66335092 111.6875 235.25 C105.6879842 229.85426933 100.11810606 224.25248626 94.859375 218.1328125 C93.60162954 216.69010448 92.3193742 215.26846124 91.015625 213.8671875 C83.74277137 206.03692539 77.37507135 197.5617872 71 189 C70.5551123 188.40703125 70.11022461 187.8140625 69.65185547 187.203125 C31.43206811 136.06418326 0 64.84694986 0 0 Z " fill="#FEFEFE" transform="translate(140,542)"/>
<path d="M0 0 C52.30051959 8.60665816 104.66488159 34.28004359 146 67 C146.90363281 67.70382813 147.80726563 68.40765625 148.73828125 69.1328125 C151.18407105 71.0597984 153.59743976 73.01940841 156 75 C156.9796875 75.80566406 157.959375 76.61132812 158.96875 77.44140625 C173.22158301 89.2756829 186.93625271 101.92562816 199 116 C199.85078125 116.96164062 200.7015625 117.92328125 201.578125 118.9140625 C219.71820889 139.53075664 234.56412241 162.1187253 248 186 C248.35658691 186.62519531 248.71317383 187.25039063 249.08056641 187.89453125 C268.83533621 222.64597419 281.11715233 262.30817159 287.8125 301.5625 C288.0199585 302.77534668 288.22741699 303.98819336 288.44116211 305.23779297 C289.84071941 313.89744297 290.41092924 322.16393864 291 331 C259.32 331 227.64 331 195 331 C193.61310676 328.22621353 193.69174509 325.76661941 193.4921875 322.66796875 C193.39712436 321.31735526 193.30044653 319.96685473 193.20239258 318.61645508 C193.15015533 317.89680573 193.09791809 317.17715637 193.0440979 316.43569946 C186.42549745 228.43972825 150.7054273 141.03611523 92 75 C91.12988281 74.01773438 90.25976562 73.03546875 89.36328125 72.0234375 C79.16448019 60.71176278 68.60911366 49.46575237 56.60546875 40.05078125 C53.85076711 37.88253783 51.21592624 35.60325431 48.5625 33.3125 C36.72343428 23.45172376 23.88748475 14.75363694 10.46801758 7.1953125 C6.69463158 5.06401779 3.31642072 2.82438913 0 0 Z " fill="#DE1717" transform="translate(595,151)"/>
<path d="M0 0 C30.03 0 60.06 0 91 0 C89.82545125 18.79278007 89.82545125 18.79278007 88.375 27.125 C88.20242676 28.12450684 88.02985352 29.12401367 87.85205078 30.15380859 C82.20980398 61.68571477 73.39148025 91.87655695 60 121 C59.62439941 121.83724609 59.24879883 122.67449219 58.86181641 123.53710938 C38.572819 168.7305294 7.15883074 212.66740156 -30.6796875 245.015625 C-32.44988034 246.5295273 -34.20184782 248.06476703 -35.9453125 249.609375 C-77.67938585 286.3870996 -133.72142924 318.64478564 -189 329 C-189.99 328.67 -190.98 328.34 -192 328 C-191.12859375 327.5153125 -190.2571875 327.030625 -189.359375 326.53125 C-169.11960543 315.1841484 -150.24523981 301.52535026 -133 286 C-132.44618652 285.50258301 -131.89237305 285.00516602 -131.32177734 284.49267578 C-121.00994139 275.19080812 -110.97346382 265.61702456 -102 255 C-101.19175781 254.06929687 -100.38351562 253.13859375 -99.55078125 252.1796875 C-81.9790664 231.85770061 -66.92950439 209.53123705 -54 186 C-53.28529541 184.70618408 -53.28529541 184.70618408 -52.55615234 183.38623047 C-35.7721304 152.77681977 -24.10815621 120.67742776 -14.85693359 87.10742188 C-14.31523567 85.14311099 -13.76693416 83.18059868 -13.20947266 81.22070312 C-9.56505409 68.27012812 -7.2824127 55.18658529 -5.32006836 41.89770508 C-4.9404589 39.33249479 -4.55178367 36.76877649 -4.16210938 34.20507812 C-3.90830716 32.50789421 -3.65503549 30.81063086 -3.40234375 29.11328125 C-3.29083481 28.38031326 -3.17932587 27.64734528 -3.06443787 26.89216614 C-1.7564118 17.94738908 -0.94879603 9.01356226 0 0 Z " fill="#DEDEDE" transform="translate(790,542)"/>
<path d="M0 0 C15.60536666 12.45043328 26.65324579 28.23005351 31.77734375 47.59375 C32.11378906 48.85832031 32.11378906 48.85832031 32.45703125 50.1484375 C37.34824633 72.19240682 32.36165667 95.64546437 20.7109375 114.6875 C7.40710336 134.68356586 -11.26592812 146.71316732 -34.2734375 152.33984375 C-55.51154124 156.50699536 -77.6237777 152.54485085 -96.03515625 141.21875 C-97.78077825 140.03431315 -99.51050708 138.82607789 -101.22265625 137.59375 C-102.50076172 136.68496094 -102.50076172 136.68496094 -103.8046875 135.7578125 C-120.95813654 122.8466143 -132.94182169 101.95091932 -135.98681641 80.71679688 C-138.69566457 56.33155498 -132.98290319 33.7396907 -117.59765625 14.46875 C-116.15706143 12.82800393 -114.70054355 11.20098684 -113.22265625 9.59375 C-112.68511719 8.9646875 -112.14757812 8.335625 -111.59375 7.6875 C-106.1672773 1.70341983 -99.08851376 -2.2867355 -92.22265625 -6.40625 C-91.52269531 -6.83035156 -90.82273437 -7.25445312 -90.1015625 -7.69140625 C-62.6101136 -22.81476456 -24.63547766 -18.84793301 0 0 Z " fill="#FEFEFE" transform="translate(564.22265625,443.40625)"/>
</svg>
